<svg width="64" height="64" viewBox="0 0 64 64" fill="none" xmlns="http://www.w3.org/2000/svg">
<g id="icon-search">
<path id="Path" d="M56.8413 7.15821C47.3154 -2.40478 31.9395 -2.36718 22.4136 7.15821C14.3882 15.1841 12.9629 27.5972 18.8882 37.1607L16.3755 39.7105L15.0195 45.855L19.2339 50.0693L24.3262 47.6611L26.8389 45.1108C36.4023 51.0366 48.8159 49.6489 56.8413 41.5859C66.4043 32.0601 66.3667 16.6841 56.8413 7.15821Z" fill="#676E74"/>
<path id="Path_2" d="M24.3262 47.6611L26.8389 45.1108C36.4023 51.0366 48.8154 49.6489 56.8413 41.5859C66.4043 32.0601 66.3667 16.6841 56.8413 7.1582L16.582 47.4175L19.2334 50.0693L24.3262 47.6611Z" fill="#474F54"/>
<path id="Path_3" d="M54.2134 9.78711C50.481 6.0542 45.3242 3.74561 39.6284 3.74561C28.2368 3.74561 19.002 12.9805 19.002 24.3721C19.002 30.0679 21.3105 35.2246 25.043 38.9575C28.7759 42.6899 33.9326 44.9985 39.6284 44.9985C51.02 44.9985 60.2549 35.7637 60.2549 24.3721C60.2549 18.6763 57.9463 13.5195 54.2134 9.78711Z" fill="#64E1DC"/>
<path id="Path_4" d="M60.2549 24.3721C60.2549 18.6763 57.9463 13.5195 54.2134 9.78711L25.043 38.9575C28.7759 42.6899 33.9326 44.9985 39.6284 44.9985C51.02 44.9985 60.2549 35.7637 60.2549 24.3721Z" fill="#00C8C8"/>
<path id="Path_5" d="M56.2383 23.4106C56.0542 23.103 53.2583 18.4961 48.9575 15.042C46.3271 12.9287 43.1353 11.2461 39.6274 11.2461C30.3853 11.2461 23.3135 22.9146 23.0166 23.4106L22.4414 24.3721L23.0166 25.3335C23.2007 25.6416 25.9961 30.2485 30.2969 33.7026C32.9277 35.8154 36.1196 37.498 39.6274 37.498C48.8696 37.498 55.9414 25.8296 56.2383 25.3335L56.813 24.3721L56.2383 23.4106Z" fill="#EFEFF4"/>
<path id="Path_6" d="M56.2383 25.3335L56.813 24.3721L56.2383 23.4106C56.0542 23.103 53.2583 18.4961 48.9575 15.042L30.2969 33.7026C32.9277 35.8154 36.1196 37.498 39.6274 37.498C48.8696 37.498 55.9414 25.8296 56.2383 25.3335Z" fill="#DADAE5"/>
<path id="Path_7" d="M43.6035 20.3965C42.585 19.3774 41.1782 18.7466 39.6274 18.7466C36.5254 18.7466 34.002 21.27 34.002 24.3721C34.002 25.9233 34.6328 27.3296 35.6514 28.3481C36.6704 29.3667 38.0762 29.9976 39.6274 29.9976C42.7295 29.9976 45.2529 27.4741 45.2529 24.3721C45.2529 22.8213 44.6221 21.415 43.6035 20.3965Z" fill="#64E1DC"/>
<path id="Path_8" d="M45.2539 24.3721C45.2539 22.8213 44.623 21.415 43.6045 20.3965L35.6523 28.3481C36.6709 29.3667 38.0771 29.9976 39.6284 29.9976C42.7305 29.9976 45.2539 27.4741 45.2539 24.3721Z" fill="#00C8C8"/>
<path id="Path_9" d="M40.9536 23.0464C40.6143 22.707 40.1455 22.4971 39.6279 22.4971C38.5933 22.4971 37.7529 23.3374 37.7529 24.3721C37.7529 24.8896 37.9629 25.3584 38.3022 25.6978C38.6416 26.0371 39.1104 26.2471 39.6279 26.2471C40.6626 26.2471 41.5029 25.4067 41.5029 24.3721C41.5029 23.855 41.293 23.3862 40.9536 23.0464Z" fill="#676E74"/>
<path id="Path_10" d="M41.5034 24.3721C41.5034 23.855 41.2935 23.3862 40.9541 23.0464L38.3027 25.6978C38.6421 26.0371 39.1108 26.2471 39.6284 26.2471C40.6631 26.2471 41.5034 25.4067 41.5034 24.3721Z" fill="#474F54"/>
<path id="Path_11" d="M20.333 43.667L16.376 39.7104L0 56.0493L3.9751 60.0249L7.95068 64L24.3267 47.6611L20.333 43.667Z" fill="#575C60"/>
<path id="Path_12" d="M24.3262 47.6611L20.3325 43.667L3.97461 60.0249L7.9502 64L24.3262 47.6611Z" fill="#333637"/>
</g>
</svg>
